<svg width="488" height="277" viewBox="0 0 488 277" fill="none" xmlns="http://www.w3.org/2000/svg">
<path d="M488 275.957C488 276.652 487.752 277 487.255 277H472.199C466.633 277 462.509 275.708 459.826 273.124C457.242 270.54 455.95 266.317 455.95 260.453V169.371H465.043C469.416 169.371 472.695 170.464 474.882 172.651C477.168 174.738 478.31 177.471 478.31 180.85V260.155C478.31 263.236 478.956 264.975 480.248 265.373C480.944 265.671 481.888 265.82 483.081 265.82H486.807C487.603 265.82 488 266.168 488 266.863V275.957Z" fill="#EAAC86"/>
<path d="M410.949 213.645H402.899C399.819 213.645 398.079 214.192 397.682 215.285C397.086 216.577 396.787 218.415 396.787 220.801V258.664C396.787 258.863 396.787 259.459 396.787 260.453C396.787 261.447 396.887 262.292 397.086 262.987C397.483 264.876 399.421 265.82 402.899 265.82H410.949V277H396.489C392.713 277 389.632 276.851 387.247 276.553C384.862 276.155 382.775 275.36 380.986 274.168C379.197 272.975 377.855 271.683 376.961 270.292C376.067 268.801 375.321 266.466 374.725 263.286C374.029 258.813 373.682 252.553 373.682 244.503C373.682 236.453 373.731 231.037 373.831 228.254C373.93 225.372 374.079 222.341 374.278 219.161C374.576 215.981 375.023 213.645 375.619 212.154C376.315 210.664 377.16 209.173 378.154 207.682C379.247 206.092 380.638 204.999 382.328 204.403C386.005 203.111 390.725 202.465 396.489 202.465H410.949V213.645ZM444.49 275.957C444.49 276.652 444.291 277 443.894 277H431.67C426.105 277 421.98 275.708 419.297 273.124C416.713 270.54 415.421 266.317 415.421 260.453V202.465H421.533C427.794 202.465 432.067 203.956 434.353 206.937C436.639 209.819 437.782 213.645 437.782 218.415V260.155C437.782 263.236 438.428 264.975 439.72 265.373C440.415 265.671 441.36 265.82 442.552 265.82H443.297C444.092 265.82 444.49 266.168 444.49 266.863V275.957Z" fill="#EAAC86"/>
<path d="M357.915 202.465V253.745C357.915 264.876 354.387 271.932 347.331 274.913C344.25 276.304 340.374 277 335.704 277H330.337V265.82C333.815 265.82 335.554 263.335 335.554 258.366V208.577C335.554 204.502 337.343 202.465 340.921 202.465H357.915ZM298.287 202.465H315.281C318.859 202.465 320.647 204.502 320.647 208.577V258.366C320.647 263.335 322.387 265.82 325.865 265.82V277H320.498C311.157 277 304.995 274.416 302.014 269.248C299.529 265.174 298.287 260.006 298.287 253.745V202.465Z" fill="#EAAC86"/>
<path d="M259.283 202.614H268.376C272.749 202.614 276.028 203.707 278.215 205.894C280.5 207.981 281.643 210.713 281.643 214.092V277H264.649C263.059 277 261.767 276.454 260.773 275.36C259.78 274.267 259.283 272.826 259.283 271.037V202.614ZM260.326 170.862C261.419 169.769 264.6 169.222 269.867 169.222C275.134 169.222 278.314 169.769 279.407 170.862C280.5 171.856 281.047 174.837 281.047 179.806C281.047 184.775 280.451 187.806 279.258 188.899C278.165 189.993 275.034 190.539 269.867 190.539C264.699 190.539 261.519 189.993 260.326 188.899C259.233 187.806 258.686 184.775 258.686 179.806C258.686 174.837 259.233 171.856 260.326 170.862Z" fill="#EAAC86"/>
<path d="M244.885 275.808C244.885 276.404 244.587 276.801 243.99 277H232.661C225.406 277 220.139 275.559 216.859 272.677C213.58 269.795 211.94 264.727 211.94 257.472V213.943H204.337C201.853 213.943 200.611 212.453 200.611 209.471V202.465H211.94V169.222H221.033C225.406 169.222 228.686 170.315 230.872 172.502C233.158 174.688 234.301 177.471 234.301 180.85V260.155C234.301 263.832 236.388 265.671 240.562 265.671H243.692C244.487 265.671 244.885 266.019 244.885 266.714V275.808ZM249.506 202.465V209.471C249.506 212.453 248.264 213.943 245.779 213.943H238.027V202.465H249.506Z" fill="#EAAC86"/>
<path d="M151.889 202.465V229.745C151.889 231.434 152.138 232.627 152.634 233.322C153.131 233.919 154.423 234.217 156.51 234.217H164.858V245.397H145.777C134.945 245.397 129.529 240.08 129.529 229.447V219.012C129.529 212.453 131.168 208.08 134.448 205.893C137.827 203.608 143.641 202.465 151.889 202.465ZM152.187 253.447V261.348C152.187 263.037 152.436 264.23 152.933 264.925C153.43 265.522 154.721 265.82 156.808 265.82H164.858V277H146.075C135.243 277 129.827 271.683 129.827 261.05V256.577C129.827 255.087 129.976 254.242 130.274 254.043C130.671 253.844 130.92 253.745 131.019 253.745C131.119 253.646 131.367 253.596 131.765 253.596C132.262 253.497 132.56 253.447 132.659 253.447C139.218 253.447 145.728 253.447 152.187 253.447ZM169.33 234.217H175.442C186.275 234.217 191.691 239.534 191.691 250.167V260.453C191.691 267.012 190.002 271.435 186.623 273.721C183.343 275.907 177.579 277 169.33 277V234.217ZM156.361 202.465H175.144C185.977 202.465 191.393 207.782 191.393 218.415V226.167C184.734 226.167 179.666 226.167 176.188 226.167C172.709 226.167 170.92 226.167 170.821 226.167C170.722 226.068 170.523 226.018 170.225 226.018C170.026 225.919 169.877 225.819 169.778 225.72C169.678 225.62 169.579 225.521 169.479 225.422C169.38 225.223 169.33 225.024 169.33 224.825C169.132 224.03 169.032 223.434 169.032 223.037V218.117C169.032 216.428 168.784 215.285 168.287 214.689C167.79 213.993 166.498 213.645 164.411 213.645H156.361V202.465Z" fill="#EAAC86"/>
<path d="M76.082 277H75.7839C65.9452 277 59.883 275.311 57.5973 271.932C56.5041 270.342 55.6097 268.801 54.914 267.311C54.3177 265.82 53.9202 263.484 53.7214 260.304C53.2245 254.54 52.9761 248.13 52.9761 241.074C52.9761 234.018 53.0258 228.95 53.1251 225.869C53.2245 222.689 53.5227 219.509 54.0196 216.328C54.6158 213.049 55.3612 210.713 56.2556 209.322C57.15 207.831 58.4917 206.49 60.2805 205.297C62.0694 204.105 64.1564 203.359 66.5415 203.061C68.9266 202.664 72.0074 202.465 75.7839 202.465H76.082V277ZM115.735 253.447V261.05C115.735 271.683 110.319 277 99.4861 277H80.7032V265.82H88.753C90.84 265.82 92.1319 265.522 92.6288 264.925C93.1257 264.23 93.3742 263.037 93.3742 261.348V256.577C93.3742 255.087 93.5233 254.242 93.8214 254.043C94.2189 253.844 94.4674 253.745 94.5667 253.745C94.6661 253.646 94.9146 253.596 95.3121 253.596C95.809 253.497 96.1568 253.447 96.3556 253.447C102.815 253.447 109.275 253.447 115.735 253.447ZM80.7032 202.465H97.9954C104.853 202.465 109.523 203.806 112.008 206.49C114.493 209.173 115.735 213.148 115.735 218.415V231.534C115.735 240.478 110.865 244.95 101.126 244.95H79.2125V233.77H87.2623C89.6474 233.77 91.2375 233.472 92.0325 232.875C92.927 232.279 93.3742 231.136 93.3742 229.447V218.117C93.3742 216.428 93.1257 215.285 92.6288 214.689C92.1319 213.993 90.84 213.645 88.753 213.645H80.7032V202.465Z" fill="#EAAC86"/>
<path d="M228.923 64.2358H243.383C247.159 64.2358 250.24 64.4346 252.625 64.8321C255.01 65.1303 257.097 65.8756 258.886 67.0682C260.675 68.2607 262.016 69.6024 262.911 71.0931C263.805 72.4844 264.501 74.7701 264.998 77.9503C265.793 82.4224 266.19 88.6834 266.19 96.7332C266.19 104.783 266.141 110.249 266.041 113.131C265.942 115.914 265.743 118.895 265.445 122.075C265.246 125.255 264.799 127.591 264.103 129.082C263.507 130.572 262.662 132.113 261.569 133.703C260.575 135.193 259.234 136.237 257.544 136.833C253.867 138.125 249.147 138.771 243.383 138.771H243.084V82.5715C243.084 82.3727 243.084 81.7765 243.084 80.7827C243.084 79.7889 243.035 78.9441 242.935 78.2485C242.438 76.3602 240.451 75.4161 236.973 75.4161H228.923V64.2358ZM224.451 64.2358V120.435C224.451 120.634 224.451 121.23 224.451 122.224C224.451 123.218 224.55 124.063 224.749 124.758C225.146 126.647 227.084 127.591 230.563 127.591H238.612V138.771H224.153C220.376 138.771 217.295 138.622 214.91 138.324C212.525 137.926 210.438 137.131 208.649 135.939C206.86 134.746 205.519 133.454 204.624 132.063C203.73 130.572 202.985 128.237 202.388 125.057C201.693 120.584 201.345 114.324 201.345 106.274C201.345 98.2239 201.394 92.8077 201.494 90.025C201.593 87.143 201.742 84.1119 201.941 80.9317C202.239 77.7516 202.686 75.4161 203.283 73.9254C203.978 72.4347 204.823 70.944 205.817 69.4533C206.91 67.8632 208.301 66.77 209.991 66.1738C213.668 64.8818 218.388 64.2358 224.153 64.2358H224.451Z" fill="#EAAC86"/>
<path d="M148.856 64.2358H163.315C167.092 64.2358 170.173 64.4346 172.558 64.8321C174.943 65.1303 177.03 65.8756 178.819 67.0682C180.608 68.2607 181.949 69.6024 182.844 71.0931C183.738 72.4844 184.434 74.7701 184.931 77.9503C185.726 82.4224 186.123 88.6834 186.123 96.7332C186.123 104.783 186.074 110.249 185.974 113.131C185.875 115.914 185.676 118.895 185.378 122.075C185.179 125.255 184.732 127.591 184.036 129.082C183.44 130.572 182.595 132.113 181.502 133.703C180.508 135.193 179.167 136.237 177.477 136.833C173.8 138.125 169.08 138.771 163.315 138.771H163.017V82.5715C163.017 82.3727 163.017 81.7765 163.017 80.7827C163.017 79.7889 162.968 78.9441 162.868 78.2485C162.371 76.3602 160.384 75.4161 156.905 75.4161H148.856V64.2358ZM144.384 64.2358V120.435C144.384 120.634 144.384 121.23 144.384 122.224C144.384 123.218 144.483 124.063 144.682 124.758C145.079 126.647 147.017 127.591 150.495 127.591H158.545V138.771H144.085C140.309 138.771 137.228 138.622 134.843 138.324C132.458 137.926 130.371 137.131 128.582 135.939C126.793 134.746 125.452 133.454 124.557 132.063C123.663 130.572 122.917 128.237 122.321 125.057C121.625 120.584 121.278 114.324 121.278 106.274C121.278 98.2239 121.327 92.8077 121.427 90.025C121.526 87.143 121.675 84.1119 121.874 80.9317C122.172 77.7516 122.619 75.4161 123.216 73.9254C123.911 72.4347 124.756 70.944 125.75 69.4533C126.843 67.8632 128.234 66.77 129.924 66.1738C133.601 64.8818 138.321 64.2358 144.085 64.2358H144.384Z" fill="#EAAC86"/>
<path d="M29.2829 277H5.36669e-05C4.02258e-05 273.314 3.34265e-05 238.623 3.34265e-05 238.623C5.92747e-05 234.989 5.92747e-05 231.138 5.92747e-05 223.541V19.4401C5.92747e-05 11.6201 4.40243e-05 7.58904 4.40243e-05 4.06556C-9.5147e-07 0.00185279 -2.81389e-05 4.60763 4.68676e-05 0.00185279H29.2829L29.2829 277ZM98.7252 93.5063V113.615C98.7252 121.658 98.0745 126.797 96.773 129.031C95.4716 131.042 91.7531 132.048 85.6177 132.048H40.4383V93.5063H98.7252ZM183.061 0V28.8222C183.061 29.272 183.061 31.9824 183.061 34.4217C168.696 34.4217 71.6668 36.048 65.1595 36.048H40.4383V0.00185279L183.061 0Z" fill="#EAAC86"/>
</svg>
